<mxfile host="app.diagrams.net" modified="2023-10-01T16:21:18.542Z" agent="Mozilla/5.0 (Windows NT 10.0; Win64; x64) AppleWebKit/537.36 (KHTML, like Gecko) Chrome/117.0.0.0 Safari/537.36 Edg/117.0.2045.47" etag="COO9jCm7SCG9k0B1FNgL" version="22.0.0" type="github">
  <diagram name="Trang-1" id="i1eJsRjbgFQYm1bpb_vK">
    <mxGraphModel dx="1610" dy="750" grid="1" gridSize="10" guides="1" tooltips="1" connect="1" arrows="1" fold="1" page="1" pageScale="1" pageWidth="827" pageHeight="1169" math="0" shadow="0">
      <root>
        <mxCell id="0" />
        <mxCell id="1" parent="0" />
        <mxCell id="ohYFCBptn_FbceAXjdsI-1" value="Movie" style="rounded=0;whiteSpace=wrap;html=1;" parent="1" vertex="1">
          <mxGeometry x="150" y="270" width="120" height="60" as="geometry" />
        </mxCell>
        <mxCell id="ohYFCBptn_FbceAXjdsI-2" value="Title" style="ellipse;whiteSpace=wrap;html=1;aspect=fixed;fontStyle=4" parent="1" vertex="1">
          <mxGeometry x="180" y="140" width="60" height="60" as="geometry" />
        </mxCell>
        <mxCell id="ohYFCBptn_FbceAXjdsI-3" value="&lt;u&gt;Year of release&lt;/u&gt;" style="ellipse;whiteSpace=wrap;html=1;aspect=fixed;" parent="1" vertex="1">
          <mxGeometry x="250" y="90" width="60" height="60" as="geometry" />
        </mxCell>
        <mxCell id="ohYFCBptn_FbceAXjdsI-6" value="length in minute" style="ellipse;whiteSpace=wrap;html=1;aspect=fixed;" parent="1" vertex="1">
          <mxGeometry x="320" y="110" width="60" height="60" as="geometry" />
        </mxCell>
        <mxCell id="ohYFCBptn_FbceAXjdsI-7" value="production company" style="ellipse;whiteSpace=wrap;html=1;aspect=fixed;" parent="1" vertex="1">
          <mxGeometry x="410" y="120" width="60" height="60" as="geometry" />
        </mxCell>
        <mxCell id="ohYFCBptn_FbceAXjdsI-8" value="genres" style="ellipse;whiteSpace=wrap;html=1;aspect=fixed;" parent="1" vertex="1">
          <mxGeometry x="70" y="180" width="60" height="60" as="geometry" />
        </mxCell>
        <mxCell id="ohYFCBptn_FbceAXjdsI-12" value="horror" style="ellipse;whiteSpace=wrap;html=1;aspect=fixed;" parent="1" vertex="1">
          <mxGeometry x="-10" y="70" width="60" height="60" as="geometry" />
        </mxCell>
        <mxCell id="ohYFCBptn_FbceAXjdsI-13" value="action" style="ellipse;whiteSpace=wrap;html=1;aspect=fixed;" parent="1" vertex="1">
          <mxGeometry x="70" y="60" width="60" height="60" as="geometry" />
        </mxCell>
        <mxCell id="ohYFCBptn_FbceAXjdsI-14" value="drama" style="ellipse;whiteSpace=wrap;html=1;aspect=fixed;" parent="1" vertex="1">
          <mxGeometry x="150" y="70" width="60" height="60" as="geometry" />
        </mxCell>
        <mxCell id="ohYFCBptn_FbceAXjdsI-15" value="" style="endArrow=none;html=1;rounded=0;exitX=0;exitY=0;exitDx=0;exitDy=0;entryX=0.5;entryY=1;entryDx=0;entryDy=0;" parent="1" source="ohYFCBptn_FbceAXjdsI-8" target="ohYFCBptn_FbceAXjdsI-12" edge="1">
          <mxGeometry width="50" height="50" relative="1" as="geometry">
            <mxPoint x="410" y="410" as="sourcePoint" />
            <mxPoint x="460" y="360" as="targetPoint" />
          </mxGeometry>
        </mxCell>
        <mxCell id="ohYFCBptn_FbceAXjdsI-16" value="" style="endArrow=none;html=1;rounded=0;exitX=0.678;exitY=-0.008;exitDx=0;exitDy=0;entryX=0.178;entryY=0.95;entryDx=0;entryDy=0;exitPerimeter=0;entryPerimeter=0;" parent="1" source="ohYFCBptn_FbceAXjdsI-8" target="ohYFCBptn_FbceAXjdsI-13" edge="1">
          <mxGeometry width="50" height="50" relative="1" as="geometry">
            <mxPoint x="49" y="249" as="sourcePoint" />
            <mxPoint x="70" y="170" as="targetPoint" />
          </mxGeometry>
        </mxCell>
        <mxCell id="ohYFCBptn_FbceAXjdsI-17" value="" style="endArrow=none;html=1;rounded=0;exitX=0.997;exitY=0.2;exitDx=0;exitDy=0;entryX=0.136;entryY=0.964;entryDx=0;entryDy=0;exitPerimeter=0;entryPerimeter=0;" parent="1" source="ohYFCBptn_FbceAXjdsI-8" target="ohYFCBptn_FbceAXjdsI-14" edge="1">
          <mxGeometry width="50" height="50" relative="1" as="geometry">
            <mxPoint x="81" y="240" as="sourcePoint" />
            <mxPoint x="121" y="177" as="targetPoint" />
          </mxGeometry>
        </mxCell>
        <mxCell id="ohYFCBptn_FbceAXjdsI-18" value="" style="endArrow=none;html=1;rounded=0;exitX=0.179;exitY=0.006;exitDx=0;exitDy=0;exitPerimeter=0;entryX=0.5;entryY=1;entryDx=0;entryDy=0;" parent="1" source="ohYFCBptn_FbceAXjdsI-1" target="ohYFCBptn_FbceAXjdsI-8" edge="1">
          <mxGeometry width="50" height="50" relative="1" as="geometry">
            <mxPoint x="410" y="410" as="sourcePoint" />
            <mxPoint x="460" y="360" as="targetPoint" />
          </mxGeometry>
        </mxCell>
        <mxCell id="ohYFCBptn_FbceAXjdsI-19" value="" style="endArrow=none;html=1;rounded=0;exitX=0.457;exitY=0.033;exitDx=0;exitDy=0;exitPerimeter=0;entryX=0.317;entryY=1.061;entryDx=0;entryDy=0;entryPerimeter=0;" parent="1" source="ohYFCBptn_FbceAXjdsI-1" target="ohYFCBptn_FbceAXjdsI-2" edge="1">
          <mxGeometry width="50" height="50" relative="1" as="geometry">
            <mxPoint x="121" y="370" as="sourcePoint" />
            <mxPoint x="90" y="290" as="targetPoint" />
          </mxGeometry>
        </mxCell>
        <mxCell id="ohYFCBptn_FbceAXjdsI-21" value="" style="endArrow=none;html=1;rounded=0;exitX=0.644;exitY=-0.064;exitDx=0;exitDy=0;exitPerimeter=0;" parent="1" source="ohYFCBptn_FbceAXjdsI-1" target="ohYFCBptn_FbceAXjdsI-3" edge="1">
          <mxGeometry width="50" height="50" relative="1" as="geometry">
            <mxPoint x="155" y="372" as="sourcePoint" />
            <mxPoint x="169" y="294" as="targetPoint" />
          </mxGeometry>
        </mxCell>
        <mxCell id="ohYFCBptn_FbceAXjdsI-22" value="" style="endArrow=none;html=1;rounded=0;exitX=0.874;exitY=0.019;exitDx=0;exitDy=0;exitPerimeter=0;entryX=0.206;entryY=0.964;entryDx=0;entryDy=0;entryPerimeter=0;" parent="1" source="ohYFCBptn_FbceAXjdsI-1" target="ohYFCBptn_FbceAXjdsI-6" edge="1">
          <mxGeometry width="50" height="50" relative="1" as="geometry">
            <mxPoint x="165" y="382" as="sourcePoint" />
            <mxPoint x="179" y="304" as="targetPoint" />
          </mxGeometry>
        </mxCell>
        <mxCell id="ohYFCBptn_FbceAXjdsI-24" value="" style="endArrow=none;html=1;rounded=0;exitX=1;exitY=0.25;exitDx=0;exitDy=0;entryX=0.192;entryY=1.006;entryDx=0;entryDy=0;entryPerimeter=0;" parent="1" source="ohYFCBptn_FbceAXjdsI-1" target="ohYFCBptn_FbceAXjdsI-7" edge="1">
          <mxGeometry width="50" height="50" relative="1" as="geometry">
            <mxPoint x="225" y="371" as="sourcePoint" />
            <mxPoint x="322" y="298" as="targetPoint" />
          </mxGeometry>
        </mxCell>
        <mxCell id="ohYFCBptn_FbceAXjdsI-25" value="Actors" style="rounded=0;whiteSpace=wrap;html=1;" parent="1" vertex="1">
          <mxGeometry x="510" y="390" width="120" height="60" as="geometry" />
        </mxCell>
        <mxCell id="ohYFCBptn_FbceAXjdsI-26" value="Directors" style="rounded=0;whiteSpace=wrap;html=1;" parent="1" vertex="1">
          <mxGeometry x="140" y="550" width="120" height="60" as="geometry" />
        </mxCell>
        <mxCell id="ohYFCBptn_FbceAXjdsI-27" value="Name" style="ellipse;whiteSpace=wrap;html=1;aspect=fixed;fontStyle=4" parent="1" vertex="1">
          <mxGeometry x="500" y="270" width="60" height="60" as="geometry" />
        </mxCell>
        <mxCell id="ohYFCBptn_FbceAXjdsI-28" value="Date of birth" style="ellipse;whiteSpace=wrap;html=1;aspect=fixed;" parent="1" vertex="1">
          <mxGeometry x="590" y="280" width="60" height="60" as="geometry" />
        </mxCell>
        <mxCell id="ohYFCBptn_FbceAXjdsI-30" value="" style="endArrow=none;html=1;rounded=0;exitX=0.25;exitY=0;exitDx=0;exitDy=0;entryX=0.5;entryY=1;entryDx=0;entryDy=0;" parent="1" source="ohYFCBptn_FbceAXjdsI-25" target="ohYFCBptn_FbceAXjdsI-27" edge="1">
          <mxGeometry width="50" height="50" relative="1" as="geometry">
            <mxPoint x="240" y="385" as="sourcePoint" />
            <mxPoint x="422" y="300" as="targetPoint" />
          </mxGeometry>
        </mxCell>
        <mxCell id="ohYFCBptn_FbceAXjdsI-31" value="" style="endArrow=none;html=1;rounded=0;exitX=0.75;exitY=0;exitDx=0;exitDy=0;entryX=0.5;entryY=1;entryDx=0;entryDy=0;" parent="1" source="ohYFCBptn_FbceAXjdsI-25" target="ohYFCBptn_FbceAXjdsI-28" edge="1">
          <mxGeometry width="50" height="50" relative="1" as="geometry">
            <mxPoint x="250" y="395" as="sourcePoint" />
            <mxPoint x="432" y="310" as="targetPoint" />
          </mxGeometry>
        </mxCell>
        <mxCell id="ohYFCBptn_FbceAXjdsI-32" value="appear" style="rhombus;whiteSpace=wrap;html=1;rotation=2;" parent="1" vertex="1">
          <mxGeometry x="360" y="285" width="80" height="80" as="geometry" />
        </mxCell>
        <mxCell id="ohYFCBptn_FbceAXjdsI-33" value="role" style="ellipse;whiteSpace=wrap;html=1;aspect=fixed;" parent="1" vertex="1">
          <mxGeometry x="440" y="200" width="60" height="60" as="geometry" />
        </mxCell>
        <mxCell id="ohYFCBptn_FbceAXjdsI-34" value="" style="endArrow=none;html=1;rounded=0;exitX=0.5;exitY=0;exitDx=0;exitDy=0;entryX=0;entryY=0.5;entryDx=0;entryDy=0;" parent="1" source="ohYFCBptn_FbceAXjdsI-32" target="ohYFCBptn_FbceAXjdsI-33" edge="1">
          <mxGeometry width="50" height="50" relative="1" as="geometry">
            <mxPoint x="240" y="385" as="sourcePoint" />
            <mxPoint x="422" y="300" as="targetPoint" />
          </mxGeometry>
        </mxCell>
        <mxCell id="ohYFCBptn_FbceAXjdsI-35" value="" style="endArrow=none;html=1;rounded=0;exitX=-0.008;exitY=0.367;exitDx=0;exitDy=0;entryX=1;entryY=0.5;entryDx=0;entryDy=0;exitPerimeter=0;" parent="1" source="ohYFCBptn_FbceAXjdsI-25" target="ohYFCBptn_FbceAXjdsI-32" edge="1">
          <mxGeometry width="50" height="50" relative="1" as="geometry">
            <mxPoint x="550" y="400" as="sourcePoint" />
            <mxPoint x="540" y="340" as="targetPoint" />
          </mxGeometry>
        </mxCell>
        <mxCell id="ohYFCBptn_FbceAXjdsI-37" value="Name" style="ellipse;whiteSpace=wrap;html=1;aspect=fixed;fontStyle=4" parent="1" vertex="1">
          <mxGeometry x="40" y="590" width="60" height="60" as="geometry" />
        </mxCell>
        <mxCell id="ohYFCBptn_FbceAXjdsI-38" value="Date of birth" style="ellipse;whiteSpace=wrap;html=1;aspect=fixed;" parent="1" vertex="1">
          <mxGeometry x="170" y="650" width="60" height="60" as="geometry" />
        </mxCell>
        <mxCell id="ohYFCBptn_FbceAXjdsI-39" value="" style="endArrow=none;html=1;rounded=0;exitX=1;exitY=0;exitDx=0;exitDy=0;entryX=-0.008;entryY=0.631;entryDx=0;entryDy=0;entryPerimeter=0;" parent="1" source="ohYFCBptn_FbceAXjdsI-37" target="ohYFCBptn_FbceAXjdsI-26" edge="1">
          <mxGeometry width="50" height="50" relative="1" as="geometry">
            <mxPoint x="344" y="410" as="sourcePoint" />
            <mxPoint x="241" y="406" as="targetPoint" />
          </mxGeometry>
        </mxCell>
        <mxCell id="ohYFCBptn_FbceAXjdsI-40" value="" style="endArrow=none;html=1;rounded=0;exitX=0.5;exitY=0;exitDx=0;exitDy=0;entryX=0.401;entryY=1.061;entryDx=0;entryDy=0;entryPerimeter=0;" parent="1" source="ohYFCBptn_FbceAXjdsI-38" target="ohYFCBptn_FbceAXjdsI-26" edge="1">
          <mxGeometry width="50" height="50" relative="1" as="geometry">
            <mxPoint x="121" y="639" as="sourcePoint" />
            <mxPoint x="159" y="588" as="targetPoint" />
          </mxGeometry>
        </mxCell>
        <mxCell id="ohYFCBptn_FbceAXjdsI-41" value="direct" style="rhombus;whiteSpace=wrap;html=1;" parent="1" vertex="1">
          <mxGeometry x="130" y="390" width="80" height="80" as="geometry" />
        </mxCell>
        <mxCell id="ohYFCBptn_FbceAXjdsI-42" value="" style="endArrow=none;html=1;rounded=0;exitX=0;exitY=0.5;exitDx=0;exitDy=0;entryX=1;entryY=0.75;entryDx=0;entryDy=0;" parent="1" target="ohYFCBptn_FbceAXjdsI-1" edge="1" source="ohYFCBptn_FbceAXjdsI-32">
          <mxGeometry width="50" height="50" relative="1" as="geometry">
            <mxPoint x="334" y="400" as="sourcePoint" />
            <mxPoint x="231" y="396" as="targetPoint" />
          </mxGeometry>
        </mxCell>
        <mxCell id="ohYFCBptn_FbceAXjdsI-43" value="" style="endArrow=none;html=1;rounded=0;exitX=0.5;exitY=0;exitDx=0;exitDy=0;entryX=0.25;entryY=1;entryDx=0;entryDy=0;" parent="1" source="ohYFCBptn_FbceAXjdsI-41" target="ohYFCBptn_FbceAXjdsI-1" edge="1">
          <mxGeometry width="50" height="50" relative="1" as="geometry">
            <mxPoint x="344" y="410" as="sourcePoint" />
            <mxPoint x="241" y="406" as="targetPoint" />
          </mxGeometry>
        </mxCell>
        <mxCell id="ohYFCBptn_FbceAXjdsI-44" value="" style="endArrow=none;html=1;rounded=0;exitX=0.332;exitY=0.047;exitDx=0;exitDy=0;entryX=0.5;entryY=1;entryDx=0;entryDy=0;exitPerimeter=0;" parent="1" source="ohYFCBptn_FbceAXjdsI-26" target="ohYFCBptn_FbceAXjdsI-41" edge="1">
          <mxGeometry width="50" height="50" relative="1" as="geometry">
            <mxPoint x="190" y="460" as="sourcePoint" />
            <mxPoint x="150" y="430" as="targetPoint" />
          </mxGeometry>
        </mxCell>
        <mxCell id="ohYFCBptn_FbceAXjdsI-45" value="" style="endArrow=none;html=1;rounded=0;exitX=0.75;exitY=0;exitDx=0;exitDy=0;entryX=0;entryY=0.5;entryDx=0;entryDy=0;" parent="1" source="ohYFCBptn_FbceAXjdsI-26" target="_T6oR5bL1RTpgniLcGyy-1" edge="1">
          <mxGeometry width="50" height="50" relative="1" as="geometry">
            <mxPoint x="180" y="568" as="sourcePoint" />
            <mxPoint x="370" y="520" as="targetPoint" />
          </mxGeometry>
        </mxCell>
        <mxCell id="ohYFCBptn_FbceAXjdsI-48" value="Production Companies" style="rounded=0;whiteSpace=wrap;html=1;" parent="1" vertex="1">
          <mxGeometry x="-190" y="320" width="120" height="60" as="geometry" />
        </mxCell>
        <mxCell id="ohYFCBptn_FbceAXjdsI-49" value="Name" style="ellipse;whiteSpace=wrap;html=1;aspect=fixed;fontStyle=4" parent="1" vertex="1">
          <mxGeometry x="-280" y="380" width="60" height="60" as="geometry" />
        </mxCell>
        <mxCell id="ohYFCBptn_FbceAXjdsI-50" value="Address" style="ellipse;whiteSpace=wrap;html=1;aspect=fixed;" parent="1" vertex="1">
          <mxGeometry x="-210" y="440" width="60" height="60" as="geometry" />
        </mxCell>
        <mxCell id="ohYFCBptn_FbceAXjdsI-51" value="" style="endArrow=none;html=1;rounded=0;exitX=1;exitY=0;exitDx=0;exitDy=0;entryX=0;entryY=0.5;entryDx=0;entryDy=0;" parent="1" source="ohYFCBptn_FbceAXjdsI-49" target="ohYFCBptn_FbceAXjdsI-48" edge="1">
          <mxGeometry width="50" height="50" relative="1" as="geometry">
            <mxPoint x="181" y="280" as="sourcePoint" />
            <mxPoint x="110" y="250" as="targetPoint" />
          </mxGeometry>
        </mxCell>
        <mxCell id="ohYFCBptn_FbceAXjdsI-52" value="" style="endArrow=none;html=1;rounded=0;" parent="1" source="ohYFCBptn_FbceAXjdsI-50" target="ohYFCBptn_FbceAXjdsI-48" edge="1">
          <mxGeometry width="50" height="50" relative="1" as="geometry">
            <mxPoint x="-219" y="399" as="sourcePoint" />
            <mxPoint x="-140" y="380" as="targetPoint" />
          </mxGeometry>
        </mxCell>
        <mxCell id="ohYFCBptn_FbceAXjdsI-53" value="" style="endArrow=none;html=1;rounded=0;entryX=1;entryY=0.25;entryDx=0;entryDy=0;exitX=0;exitY=0.5;exitDx=0;exitDy=0;" parent="1" source="ohYFCBptn_FbceAXjdsI-54" target="ohYFCBptn_FbceAXjdsI-48" edge="1">
          <mxGeometry width="50" height="50" relative="1" as="geometry">
            <mxPoint x="20" y="330" as="sourcePoint" />
            <mxPoint x="110" y="250" as="targetPoint" />
          </mxGeometry>
        </mxCell>
        <mxCell id="ohYFCBptn_FbceAXjdsI-54" value="produces" style="rhombus;whiteSpace=wrap;html=1;" parent="1" vertex="1">
          <mxGeometry x="-10" y="300" width="80" height="80" as="geometry" />
        </mxCell>
        <mxCell id="ohYFCBptn_FbceAXjdsI-57" value="" style="endArrow=none;html=1;rounded=0;exitX=1;exitY=0.5;exitDx=0;exitDy=0;entryX=-0.032;entryY=0.644;entryDx=0;entryDy=0;entryPerimeter=0;" parent="1" source="ohYFCBptn_FbceAXjdsI-54" target="ohYFCBptn_FbceAXjdsI-1" edge="1">
          <mxGeometry width="50" height="50" relative="1" as="geometry">
            <mxPoint x="190" y="400" as="sourcePoint" />
            <mxPoint x="190" y="340" as="targetPoint" />
          </mxGeometry>
        </mxCell>
        <mxCell id="ohYFCBptn_FbceAXjdsI-58" value="(1 , 1)" style="text;html=1;align=center;verticalAlign=middle;resizable=0;points=[];autosize=1;strokeColor=none;fillColor=none;" parent="1" vertex="1">
          <mxGeometry x="-60" y="300" width="50" height="30" as="geometry" />
        </mxCell>
        <mxCell id="ohYFCBptn_FbceAXjdsI-59" value="(1 , n)" style="text;html=1;align=center;verticalAlign=middle;resizable=0;points=[];autosize=1;strokeColor=none;fillColor=none;" parent="1" vertex="1">
          <mxGeometry x="80" y="290" width="50" height="30" as="geometry" />
        </mxCell>
        <mxCell id="ohYFCBptn_FbceAXjdsI-60" value="(1 , n)" style="text;html=1;align=center;verticalAlign=middle;resizable=0;points=[];autosize=1;strokeColor=none;fillColor=none;" parent="1" vertex="1">
          <mxGeometry x="120" y="350" width="50" height="30" as="geometry" />
        </mxCell>
        <mxCell id="ohYFCBptn_FbceAXjdsI-61" value="(1 , n)" style="text;html=1;align=center;verticalAlign=middle;resizable=0;points=[];autosize=1;strokeColor=none;fillColor=none;" parent="1" vertex="1">
          <mxGeometry x="120" y="480" width="50" height="30" as="geometry" />
        </mxCell>
        <mxCell id="ohYFCBptn_FbceAXjdsI-62" value="(0 , 1)" style="text;html=1;align=center;verticalAlign=middle;resizable=0;points=[];autosize=1;strokeColor=none;fillColor=none;" parent="1" vertex="1">
          <mxGeometry x="280" y="540" width="50" height="30" as="geometry" />
        </mxCell>
        <mxCell id="ohYFCBptn_FbceAXjdsI-63" value="(1 , n)" style="text;html=1;align=center;verticalAlign=middle;resizable=0;points=[];autosize=1;strokeColor=none;fillColor=none;" parent="1" vertex="1">
          <mxGeometry x="310" y="290" width="50" height="30" as="geometry" />
        </mxCell>
        <mxCell id="ohYFCBptn_FbceAXjdsI-64" value="(1 , n)" style="text;html=1;align=center;verticalAlign=middle;resizable=0;points=[];autosize=1;strokeColor=none;fillColor=none;" parent="1" vertex="1">
          <mxGeometry x="460" y="335" width="50" height="30" as="geometry" />
        </mxCell>
        <mxCell id="_T6oR5bL1RTpgniLcGyy-1" value="Is" style="rhombus;whiteSpace=wrap;html=1;" vertex="1" parent="1">
          <mxGeometry x="340" y="480" width="80" height="80" as="geometry" />
        </mxCell>
        <mxCell id="_T6oR5bL1RTpgniLcGyy-3" value="" style="endArrow=none;html=1;rounded=0;exitX=0;exitY=0.75;exitDx=0;exitDy=0;entryX=1;entryY=0.5;entryDx=0;entryDy=0;" edge="1" parent="1" source="ohYFCBptn_FbceAXjdsI-25" target="_T6oR5bL1RTpgniLcGyy-1">
          <mxGeometry width="50" height="50" relative="1" as="geometry">
            <mxPoint x="519" y="422" as="sourcePoint" />
            <mxPoint x="424" y="410" as="targetPoint" />
          </mxGeometry>
        </mxCell>
        <mxCell id="_T6oR5bL1RTpgniLcGyy-4" value="HasQuote" style="rhombus;whiteSpace=wrap;html=1;" vertex="1" parent="1">
          <mxGeometry x="320" y="370" width="80" height="80" as="geometry" />
        </mxCell>
        <mxCell id="_T6oR5bL1RTpgniLcGyy-5" value="" style="endArrow=none;html=1;rounded=0;exitX=0;exitY=0.5;exitDx=0;exitDy=0;entryX=1;entryY=0.5;entryDx=0;entryDy=0;" edge="1" parent="1" source="ohYFCBptn_FbceAXjdsI-25" target="_T6oR5bL1RTpgniLcGyy-4">
          <mxGeometry width="50" height="50" relative="1" as="geometry">
            <mxPoint x="519" y="422" as="sourcePoint" />
            <mxPoint x="450" y="336" as="targetPoint" />
          </mxGeometry>
        </mxCell>
        <mxCell id="_T6oR5bL1RTpgniLcGyy-6" value="" style="endArrow=none;html=1;rounded=0;exitX=0;exitY=0.5;exitDx=0;exitDy=0;entryX=0.817;entryY=1.083;entryDx=0;entryDy=0;entryPerimeter=0;" edge="1" parent="1" source="_T6oR5bL1RTpgniLcGyy-4" target="ohYFCBptn_FbceAXjdsI-1">
          <mxGeometry width="50" height="50" relative="1" as="geometry">
            <mxPoint x="519" y="422" as="sourcePoint" />
            <mxPoint x="450" y="336" as="targetPoint" />
          </mxGeometry>
        </mxCell>
        <mxCell id="_T6oR5bL1RTpgniLcGyy-8" value="(0 , 1)" style="text;html=1;align=center;verticalAlign=middle;resizable=0;points=[];autosize=1;strokeColor=none;fillColor=none;" vertex="1" parent="1">
          <mxGeometry x="440" y="490" width="50" height="30" as="geometry" />
        </mxCell>
        <mxCell id="_T6oR5bL1RTpgniLcGyy-9" value="(0 , n)" style="text;html=1;align=center;verticalAlign=middle;resizable=0;points=[];autosize=1;strokeColor=none;fillColor=none;" vertex="1" parent="1">
          <mxGeometry x="240" y="370" width="50" height="30" as="geometry" />
        </mxCell>
        <mxCell id="_T6oR5bL1RTpgniLcGyy-10" value="(0 , n)" style="text;html=1;align=center;verticalAlign=middle;resizable=0;points=[];autosize=1;strokeColor=none;fillColor=none;" vertex="1" parent="1">
          <mxGeometry x="420" y="420" width="50" height="30" as="geometry" />
        </mxCell>
      </root>
    </mxGraphModel>
  </diagram>
</mxfile>
